<?xml version="1.0" standalone="no"?>
<!DOCTYPE svg PUBLIC "-//W3C//DTD SVG 20010904//EN"
 "http://www.w3.org/TR/2001/REC-SVG-20010904/DTD/svg10.dtd">
<svg version="1.0" xmlns="http://www.w3.org/2000/svg"
 width="40.000000pt" height="40.000000pt" viewBox="0 0 40.000000 40.000000"
 preserveAspectRatio="xMidYMid meet">

<g transform="translate(0.000000,40.000000) scale(0.100000,-0.100000)"
fill="#000000" stroke="none">
<path d="M132 389 c-48 -14 -109 -80 -123 -131 -44 -164 114 -307 269 -243
144 61 164 257 36 348 -45 32 -126 43 -182 26z m118 -29 c41 -11 94 -61 109
-103 48 -127 -82 -261 -212 -218 -47 16 -104 80 -113 126 -14 74 29 154 100
186 47 21 67 23 116 9z"/>
<path d="M81 295 c-11 -15 -21 -36 -21 -46 0 -11 23 -60 52 -110 47 -83 53
-90 65 -73 7 10 13 21 13 26 0 16 16 7 31 -18 l16 -26 52 88 c28 49 51 99 51
110 0 12 -10 34 -21 49 -19 24 -27 26 -63 21 -23 -3 -48 -6 -56 -6 -8 0 -33 3
-56 6 -36 5 -44 3 -63 -21z m89 -20 c16 -20 3 -40 -16 -24 -28 23 -34 -5 -10
-45 l23 -38 31 55 c36 64 45 71 77 63 40 -10 40 -39 -1 -112 -29 -52 -39 -63
-46 -50 -6 10 1 32 22 69 27 49 30 67 9 67 -4 0 -26 -34 -50 -75 -23 -41 -43
-74 -45 -72 -12 13 -74 125 -74 134 0 18 29 43 49 43 10 0 24 -7 31 -15z"/>
</g>
</svg>
